{
	"asset":{
		"generator":"Khronos glTF Blender I/O v4.1.62",
		"version":"2.0"
	},
	"scene":0,
	"scenes":[
		{
			"name":"Scene",
			"nodes":[
				0,
				1
			]
		}
	],
	"nodes":[
		{
			"mesh":0,
			"name":"Areas:building.001"
		},
		{
			"mesh":1,
			"name":"EXPORT_ESRI_AERIAL_WM.002"
		}
	],
	"materials":[
		{
			"doubleSided":true,
			"name":"Hauswand",
			"pbrMetallicRoughness":{
				"baseColorFactor":[
					0.173244908452034,
					0.11912079155445099,
					0.10949058830738068,
					1
				],
				"metallicFactor":0,
				"roughnessFactor":0.5
			}
		},
		{
			"doubleSided":true,
			"name":"AerialTextureRoofTops",
			"pbrMetallicRoughness":{
				"baseColorTexture":{
					"index":0
				},
				"metallicFactor":0,
				"roughnessFactor":0.5
			}
		},
		{
			"doubleSided":true,
			"name":"rastMat.001",
			"pbrMetallicRoughness":{
				"baseColorTexture":{
					"index":1
				},
				"metallicFactor":0,
				"roughnessFactor":0.5
			}
		}
	],
	"meshes":[
		{
			"name":"Areas:building.002",
			"primitives":[
				{
					"attributes":{
						"POSITION":0,
						"NORMAL":1,
						"TEXCOORD_0":2
					},
					"indices":3,
					"material":0
				},
				{
					"attributes":{
						"POSITION":4,
						"NORMAL":5,
						"TEXCOORD_0":6
					},
					"indices":7,
					"material":1
				}
			]
		},
		{
			"name":"EXPORT_ESRI_AERIAL_WM.002",
			"primitives":[
				{
					"attributes":{
						"POSITION":8,
						"NORMAL":9,
						"TEXCOORD_0":10,
						"TEXCOORD_1":11
					},
					"indices":12,
					"material":2
				}
			]
		}
	],
	"textures":[
		{
			"sampler":0,
			"source":0
		},
		{
			"sampler":1,
			"source":0
		}
	],
	"images":[
		{
			"mimeType":"image/png",
			"name":"EXPORT_ESRI_AERIAL_WM",
			"uri":"EXPORT_ESRI_AERIAL_WM.png"
		}
	],
	"accessors":[
		{
			"bufferView":0,
			"componentType":5126,
			"count":426264,
			"max":[
				2824.897216796875,
				629.731201171875,
				1838.3175048828125
			],
			"min":[
				-2822.80810546875,
				-8.96527099609375,
				-2056.753173828125
			],
			"type":"VEC3"
		},
		{
			"bufferView":1,
			"componentType":5126,
			"count":426264,
			"type":"VEC3"
		},
		{
			"bufferView":2,
			"componentType":5126,
			"count":426264,
			"type":"VEC2"
		},
		{
			"bufferView":3,
			"componentType":5125,
			"count":642084,
			"type":"SCALAR"
		},
		{
			"bufferView":4,
			"componentType":5126,
			"count":107015,
			"max":[
				2824.897216796875,
				629.731201171875,
				1838.3175048828125
			],
			"min":[
				-2822.80810546875,
				6.65997314453125,
				-2056.753173828125
			],
			"type":"VEC3"
		},
		{
			"bufferView":5,
			"componentType":5126,
			"count":107015,
			"type":"VEC3"
		},
		{
			"bufferView":6,
			"componentType":5126,
			"count":107015,
			"type":"VEC2"
		},
		{
			"bufferView":7,
			"componentType":5125,
			"count":264273,
			"type":"SCALAR"
		},
		{
			"bufferView":8,
			"componentType":5126,
			"count":4225,
			"max":[
				2756.446044921875,
				595.9088134765625,
				1775.953125
			],
			"min":[
				-2747.02099609375,
				495.71868896484375,
				-1893.02490234375
			],
			"type":"VEC3"
		},
		{
			"bufferView":9,
			"componentType":5126,
			"count":4225,
			"type":"VEC3"
		},
		{
			"bufferView":10,
			"componentType":5126,
			"count":4225,
			"type":"VEC2"
		},
		{
			"bufferView":11,
			"componentType":5126,
			"count":4225,
			"type":"VEC2"
		},
		{
			"bufferView":12,
			"componentType":5123,
			"count":24576,
			"type":"SCALAR"
		}
	],
	"bufferViews":[
		{
			"buffer":0,
			"byteLength":5115168,
			"byteOffset":0,
			"target":34962
		},
		{
			"buffer":0,
			"byteLength":5115168,
			"byteOffset":5115168,
			"target":34962
		},
		{
			"buffer":0,
			"byteLength":3410112,
			"byteOffset":10230336,
			"target":34962
		},
		{
			"buffer":0,
			"byteLength":2568336,
			"byteOffset":13640448,
			"target":34963
		},
		{
			"buffer":0,
			"byteLength":1284180,
			"byteOffset":16208784,
			"target":34962
		},
		{
			"buffer":0,
			"byteLength":1284180,
			"byteOffset":17492964,
			"target":34962
		},
		{
			"buffer":0,
			"byteLength":856120,
			"byteOffset":18777144,
			"target":34962
		},
		{
			"buffer":0,
			"byteLength":1057092,
			"byteOffset":19633264,
			"target":34963
		},
		{
			"buffer":0,
			"byteLength":50700,
			"byteOffset":20690356,
			"target":34962
		},
		{
			"buffer":0,
			"byteLength":50700,
			"byteOffset":20741056,
			"target":34962
		},
		{
			"buffer":0,
			"byteLength":33800,
			"byteOffset":20791756,
			"target":34962
		},
		{
			"buffer":0,
			"byteLength":33800,
			"byteOffset":20825556,
			"target":34962
		},
		{
			"buffer":0,
			"byteLength":49152,
			"byteOffset":20859356,
			"target":34963
		}
	],
	"samplers":[
		{
			"magFilter":9729,
			"minFilter":9987
		},
		{
			"magFilter":9729,
			"minFilter":9987,
			"wrapS":33071,
			"wrapT":33071
		}
	],
	"buffers":[
		{
			"byteLength":20908508,
			"uri":"scene.bin"
		}
	]
}
